<svg width="13" height="13" viewBox="0 0 13 13" fill="none" xmlns="http://www.w3.org/2000/svg">
  <g clip-path="url(#clip0_5282_7217)">
    <path d="M12.9901 3.00781L9.48389 6.5003L12.9885 9.99028C13.0076 9.74828 12.9993 3.12189 12.9901 3.00781Z" fill="#FFD634" />
    <path d="M11.7272 1.83789H1.27314C0.933083 1.83787 0.620168 1.97183 0.391602 2.19085C2.77401 4.56391 4.02018 5.80516 6.20023 7.97667C6.36562 8.14206 6.6341 8.14221 6.79952 7.97735C8.9934 5.79205 10.4313 4.35982 12.6067 2.19288C12.3767 1.97073 12.0654 1.83789 11.7272 1.83789Z" fill="#FFD634" />
    <path d="M0.0102839 3.00781C0.000787772 3.12481 -0.0077435 9.74982 0.0118073 9.99177L3.52288 6.50662L0.0102839 3.00781Z" fill="#FFD634" />
    <path d="M8.88312 7.09766L7.39802 8.57689C6.90323 9.07168 6.09872 9.07381 5.60122 8.57633L4.12325 7.10416L0.394531 10.8054C0.623098 11.0248 0.931747 11.1614 1.2729 11.1614H11.7269C12.0683 11.1614 12.3773 11.0246 12.6059 10.8049L8.88312 7.09766Z" fill="#FFD634" />
  </g>
  <defs>
    <clipPath id="clip0_5282_7217">
      <rect width="13" height="13" fill="white" />
    </clipPath>
  </defs>
</svg>